<svg width="38" height="38" viewBox="0 0 38 38" fill="none" xmlns="http://www.w3.org/2000/svg">
<rect x="6" y="2" width="25.9643" height="25.9643" rx="5" fill="url(#paint0_linear_65_674)"/>
<path fill-rule="evenodd" clip-rule="evenodd" d="M9.99707 14.9784C9.99707 9.96099 14.0645 5.89355 19.0819 5.89355C24.0994 5.89355 28.1668 9.96099 28.1668 14.9784C28.1668 19.9959 24.0994 24.0633 19.0819 24.0633C17.2485 24.0633 15.5419 23.5202 14.1142 22.586C13.6729 22.2174 12.331 22.586 10.3174 23.8347L10.3025 23.8497L10.2566 23.8037L10.2107 23.7579L10.2257 23.7429C11.5673 21.8091 11.843 20.3875 11.4743 19.9461C10.5402 18.5185 9.99707 16.8119 9.99707 14.9784ZM19.082 22.1165C23.0242 22.1165 26.2201 18.9207 26.2201 14.9784C26.2201 11.0362 23.0242 7.84032 19.082 7.84032C15.1397 7.84032 11.9439 11.0362 11.9439 14.9784C11.9439 18.9207 15.1397 22.1165 19.082 22.1165Z" fill="white"/>
<g filter="url(#filter0_ddii_65_674)">
<path d="M22.8399 17.9558L22.8409 17.9548C22.9646 17.8295 22.9642 17.6268 22.8399 17.5021L21.4326 16.0806L21.4316 16.0796C21.3074 15.9549 21.1064 15.9553 20.9827 16.0806L20.1854 16.8972C19.9531 17.1299 19.589 17.1617 19.3205 16.9729C18.8558 16.6452 18.4209 16.2766 18.0208 15.8714C17.6619 15.5109 17.3318 15.1224 17.0334 14.7095C16.837 14.4385 16.8667 14.0634 17.1034 13.8274L17.9283 12.9956L17.9293 12.9946C18.053 12.8694 18.0525 12.6667 17.9283 12.542L16.5235 11.1255L16.5225 11.1245C16.3983 10.9998 16.1973 11.0002 16.0736 11.1255L15.6287 11.5741C15.0887 12.1097 14.8952 12.9068 15.1288 13.6333C15.3325 14.2517 15.6202 14.8386 15.9836 15.3774C16.3159 15.8781 16.6969 16.3442 17.1209 16.7687C17.5818 17.2362 18.0923 17.6512 18.6432 18.0062C19.2361 18.3989 19.8875 18.6933 20.5728 18.8783C21.253 19.042 21.9686 18.8356 22.46 18.3338L22.8399 17.9533V17.9558Z" fill="url(#paint1_linear_65_674)"/>
</g>
<defs>
<filter id="filter0_ddii_65_674" x="0.03125" y="0.03125" width="37.9023" height="37.9023" filterUnits="userSpaceOnUse" color-interpolation-filters="sRGB">
<feFlood flood-opacity="0" result="BackgroundImageFix"/>
<feColorMatrix in="SourceAlpha" type="matrix" values="0 0 0 0 0 0 0 0 0 0 0 0 0 0 0 0 0 0 127 0" result="hardAlpha"/>
<feOffset dy="4"/>
<feGaussianBlur stdDeviation="7.5"/>
<feColorMatrix type="matrix" values="0 0 0 0 0 0 0 0 0 0 0 0 0 0 0 0 0 0 0.3 0"/>
<feBlend mode="normal" in2="BackgroundImageFix" result="effect1_dropShadow_65_674"/>
<feColorMatrix in="SourceAlpha" type="matrix" values="0 0 0 0 0 0 0 0 0 0 0 0 0 0 0 0 0 0 127 0" result="hardAlpha"/>
<feOffset dy="1"/>
<feGaussianBlur stdDeviation="1.5"/>
<feColorMatrix type="matrix" values="0 0 0 0 0 0 0 0 0 0 0 0 0 0 0 0 0 0 0.25 0"/>
<feBlend mode="normal" in2="effect1_dropShadow_65_674" result="effect2_dropShadow_65_674"/>
<feBlend mode="normal" in="SourceGraphic" in2="effect2_dropShadow_65_674" result="shape"/>
<feColorMatrix in="SourceAlpha" type="matrix" values="0 0 0 0 0 0 0 0 0 0 0 0 0 0 0 0 0 0 127 0" result="hardAlpha"/>
<feOffset dy="-2"/>
<feGaussianBlur stdDeviation="2"/>
<feComposite in2="hardAlpha" operator="arithmetic" k2="-1" k3="1"/>
<feColorMatrix type="matrix" values="0 0 0 0 1 0 0 0 0 1 0 0 0 0 1 0 0 0 0.5 0"/>
<feBlend mode="normal" in2="shape" result="effect3_innerShadow_65_674"/>
<feColorMatrix in="SourceAlpha" type="matrix" values="0 0 0 0 0 0 0 0 0 0 0 0 0 0 0 0 0 0 127 0" result="hardAlpha"/>
<feOffset dy="-2"/>
<feGaussianBlur stdDeviation="6"/>
<feComposite in2="hardAlpha" operator="arithmetic" k2="-1" k3="1"/>
<feColorMatrix type="matrix" values="0 0 0 0 1 0 0 0 0 1 0 0 0 0 1 0 0 0 0.24 0"/>
<feBlend mode="normal" in2="effect3_innerShadow_65_674" result="effect4_innerShadow_65_674"/>
</filter>
<linearGradient id="paint0_linear_65_674" x1="18.9821" y1="2" x2="18.9821" y2="27.9643" gradientUnits="userSpaceOnUse">
<stop stop-color="#36F27B"/>
<stop offset="1" stop-color="#0EB136"/>
</linearGradient>
<linearGradient id="paint1_linear_65_674" x1="18.9823" y1="11.0312" x2="18.9823" y2="18.9334" gradientUnits="userSpaceOnUse">
<stop stop-color="#FBFFFB"/>
<stop offset="1" stop-color="#96EFA8"/>
</linearGradient>
</defs>
</svg>
